<svg width="71" height="70" viewBox="0 0 71 70" fill="none" xmlns="http://www.w3.org/2000/svg">
<path d="M52.5583 42.9323C52.5583 45.9986 53.4296 47.2215 55.7083 47.2215C60.7869 47.2215 64.0208 40.7421 64.0208 29.9661C64.0208 13.4955 52.0333 5.61066 37.0671 5.61066C21.6708 5.61066 7.66712 15.9486 7.66712 35.4855C7.66712 54.1463 19.9171 64.309 38.7296 64.309C45.1171 64.309 49.4046 63.6082 55.9635 61.4179L57.3708 67.2841C50.8958 69.3904 43.976 70 38.6421 70C13.9671 70 0.750977 56.4205 0.750977 35.4818C0.750977 14.368 16.0671 0 37.1546 0C59.1171 0 70.751 13.1414 70.751 29.2616C70.751 42.9287 66.4671 53.3542 52.9921 53.3542C46.8635 53.3542 42.8421 50.9011 42.3171 45.4657C40.7421 51.5107 36.5421 53.3542 30.851 53.3542C23.2385 53.3542 16.851 47.4807 16.851 35.6571C16.851 23.7422 22.4546 16.383 32.5171 16.383C37.8546 16.383 41.1796 18.4856 42.6598 21.8148L45.201 17.1715H52.551V42.9323H52.5583ZM41.7994 31.3679C41.7994 26.553 38.2083 24.5343 35.2333 24.5343C31.9958 24.5343 28.4119 27.1589 28.4119 34.8722C28.4119 41.0049 31.1244 44.4217 35.2333 44.4217C38.1208 44.4217 41.7994 42.5819 41.7994 37.5005V31.3679Z" fill="black"/>
</svg>
