<svg width="66" height="66" viewBox="0 0 66 66" fill="none" xmlns="http://www.w3.org/2000/svg">
<path d="M46.4824 21.4468C49.2506 24.6916 50.7594 28.8238 50.7332 33.0888C50.707 37.3539 49.1476 41.4672 46.3397 44.6777C43.5318 47.8882 39.6628 49.9816 35.4393 50.5757C31.2157 51.1697 26.9194 50.2248 23.3348 47.9135L46.4824 21.4468ZM33 15.2308C29.6045 15.2343 26.281 16.2106 23.4231 18.0442C20.5652 19.8777 18.2924 22.4917 16.8739 25.5768C15.4554 28.6619 14.9505 32.0888 15.4191 35.4518C15.8876 38.8149 17.3099 41.9733 19.5176 44.5532L42.6811 18.0992C39.8019 16.2215 36.4374 15.2246 33 15.2308ZM66 33C66 39.5268 64.0646 45.907 60.4385 51.3338C56.8124 56.7606 51.6585 60.9903 45.6286 63.488C39.5986 65.9857 32.9634 66.6392 26.562 65.3659C20.1607 64.0926 14.2806 60.9496 9.66549 56.3345C5.05036 51.7194 1.90741 45.8393 0.634101 39.438C-0.639212 33.0366 0.0142984 26.4014 2.51199 20.3714C5.00968 14.3415 9.23937 9.18759 14.6662 5.5615C20.093 1.93542 26.4732 0 33 0C41.7488 0.0109155 50.1361 3.4912 56.3225 9.67753C62.5088 15.8639 65.9891 24.2512 66 33ZM55.8462 33C55.851 27.2949 53.7116 21.7963 49.8522 17.5947L51.4038 15.6337C51.6473 15.3878 51.8379 15.0946 51.964 14.7723C52.09 14.45 52.1488 14.1053 52.1367 13.7594C52.1246 13.4135 52.042 13.0738 51.8938 12.761C51.7456 12.4482 51.535 12.1691 51.275 11.9407C51.0149 11.7123 50.711 11.5395 50.3817 11.4329C50.0524 11.3263 49.7048 11.2881 49.3603 11.3208C49.0158 11.3534 48.6815 11.4562 48.3781 11.6228C48.0748 11.7893 47.8087 12.0162 47.5962 12.2893L46.0382 14.2503C41.4244 11.0716 35.8035 9.69904 30.2439 10.3937C24.6844 11.0883 19.5739 13.8017 15.8841 18.0179C12.1943 22.2341 10.1825 27.6592 10.2311 33.2618C10.2797 38.8643 12.3854 44.2537 16.1478 48.4053L14.5962 50.3662C14.1989 50.877 14.0116 51.5202 14.0727 52.1643C14.1337 52.8085 14.4385 53.4051 14.9246 53.8321C15.4108 54.2591 16.0417 54.4843 16.6883 54.4618C17.335 54.4392 17.9486 54.1705 18.4039 53.7107L19.9618 51.7497C23.3862 54.1363 27.3994 55.5385 31.5649 55.8038C35.7305 56.0691 39.8891 55.1873 43.5886 53.2543C47.288 51.3213 50.3868 48.4111 52.5479 44.8401C54.709 41.2691 55.8498 37.174 55.8462 33Z" fill="black"/>
</svg>
