<svg width="99" height="99" viewBox="0 0 99 99" fill="none" xmlns="http://www.w3.org/2000/svg">
<path fill-rule="evenodd" clip-rule="evenodd" d="M0.3465 16.1271C-3.31923e-07 17.9487 0 20.1366 0 24.5025V59.4C0 78.0664 -5.90086e-07 87.4021 5.8014 93.1986C11.6028 98.995 20.9335 99 39.6 99H59.4C78.0664 99 87.4021 99 93.1986 93.1986C98.995 87.3972 99 78.0664 99 59.4V48.5001C99 35.4717 99 28.9525 95.1885 24.7203C94.8388 24.3297 94.4687 23.958 94.0797 23.6066C89.8475 19.8 83.3283 19.8 70.2999 19.8H68.4486C62.7412 19.8 59.8851 19.8 57.222 19.0427C55.7606 18.6249 54.3521 18.0402 53.0244 17.3002C50.6088 15.9588 48.5892 13.9342 44.55 9.9L41.8275 7.1775C40.4712 5.8212 39.798 5.148 39.0852 4.554C36.0195 2.01287 32.2588 0.455122 28.2942 0.0841498C27.3735 -2.02842e-07 26.4132 0 24.5025 0C20.1316 0 17.9487 -3.31923e-07 16.1271 0.3465C12.2158 1.08516 8.61795 2.98553 5.80291 5.79967C2.98788 8.61382 1.08638 12.216 0.3465 16.1271ZM50.7375 39.6C50.7375 38.6154 51.1286 37.6711 51.8249 36.9749C52.5211 36.2786 53.4654 35.8875 54.45 35.8875H79.2C80.1846 35.8875 81.1289 36.2786 81.8251 36.9749C82.5214 37.6711 82.9125 38.6154 82.9125 39.6C82.9125 40.5846 82.5214 41.5289 81.8251 42.2251C81.1289 42.9214 80.1846 43.3125 79.2 43.3125H54.45C53.4654 43.3125 52.5211 42.9214 51.8249 42.2251C51.1286 41.5289 50.7375 40.5846 50.7375 39.6Z" fill="black"/>
</svg>
