<svg width="78" height="78" viewBox="0 0 78 78" fill="none" xmlns="http://www.w3.org/2000/svg">
<path fill-rule="evenodd" clip-rule="evenodd" d="M5.7096 72.2904C11.427 78 20.6154 78 39 78C57.3846 78 66.5769 78 72.2865 72.2865C78 66.5808 78 57.3846 78 39C78 20.6154 78 11.4231 72.2865 5.7096C66.5808 0 57.3846 0 39 0C20.6154 0 11.4231 0 5.7096 5.7096C0 11.427 0 20.6154 0 39C0 57.3846 0 66.5808 5.7096 72.2904ZM65.325 54.6C65.325 55.3758 65.0168 56.1197 64.4683 56.6683C63.9197 57.2168 63.1758 57.525 62.4 57.525H15.6C14.8242 57.525 14.0803 57.2168 13.5317 56.6683C12.9832 56.1197 12.675 55.3758 12.675 54.6C12.675 53.8242 12.9832 53.0803 13.5317 52.5317C14.0803 51.9832 14.8242 51.675 15.6 51.675H62.4C63.1758 51.675 63.9197 51.9832 64.4683 52.5317C65.0168 53.0803 65.325 53.8242 65.325 54.6ZM62.4 41.925C63.1758 41.925 63.9197 41.6168 64.4683 41.0683C65.0168 40.5197 65.325 39.7758 65.325 39C65.325 38.2242 65.0168 37.4803 64.4683 36.9317C63.9197 36.3832 63.1758 36.075 62.4 36.075H15.6C14.8242 36.075 14.0803 36.3832 13.5317 36.9317C12.9832 37.4803 12.675 38.2242 12.675 39C12.675 39.7758 12.9832 40.5197 13.5317 41.0683C14.0803 41.6168 14.8242 41.925 15.6 41.925H62.4ZM65.325 23.4C65.325 24.1758 65.0168 24.9197 64.4683 25.4683C63.9197 26.0168 63.1758 26.325 62.4 26.325H15.6C14.8242 26.325 14.0803 26.0168 13.5317 25.4683C12.9832 24.9197 12.675 24.1758 12.675 23.4C12.675 22.6242 12.9832 21.8803 13.5317 21.3317C14.0803 20.7832 14.8242 20.475 15.6 20.475H62.4C63.1758 20.475 63.9197 20.7832 64.4683 21.3317C65.0168 21.8803 65.325 22.6242 65.325 23.4Z" fill="black"/>
</svg>
