<svg width="73" height="94" viewBox="0 0 73 94" fill="none" xmlns="http://www.w3.org/2000/svg">
<path d="M36.751 71.619C39.1379 71.619 41.4271 70.6758 43.1149 68.997C44.8028 67.3181 45.751 65.041 45.751 62.6667C45.751 60.2923 44.8028 58.0153 43.1149 56.3364C41.4271 54.6575 39.1379 53.7143 36.751 53.7143C34.364 53.7143 32.0748 54.6575 30.387 56.3364C28.6992 58.0153 27.751 60.2923 27.751 62.6667C27.751 65.041 28.6992 67.3181 30.387 68.997C32.0748 70.6758 34.364 71.619 36.751 71.619ZM63.751 31.3333C66.1379 31.3333 68.4271 32.2765 70.1149 33.9554C71.8028 35.6343 72.751 37.9114 72.751 40.2857V85.0476C72.751 87.4219 71.8028 89.699 70.1149 91.3779C68.4271 93.0568 66.1379 94 63.751 94H9.75098C7.36403 94 5.07484 93.0568 3.38702 91.3779C1.69919 89.699 0.750977 87.4219 0.750977 85.0476V40.2857C0.750977 37.9114 1.69919 35.6343 3.38702 33.9554C5.07484 32.2765 7.36403 31.3333 9.75098 31.3333H14.251V22.381C14.251 16.4452 16.6215 10.7525 20.8411 6.55523C25.0606 2.35799 30.7836 0 36.751 0C39.7057 0 42.6315 0.578901 45.3614 1.70365C48.0912 2.8284 50.5716 4.47697 52.6609 6.55523C54.7502 8.63349 56.4075 11.1007 57.5383 13.8161C58.669 16.5315 59.251 19.4418 59.251 22.381V31.3333H63.751ZM36.751 8.95238C33.1706 8.95238 29.7368 10.3672 27.205 12.8855C24.6733 15.4039 23.251 18.8195 23.251 22.381V31.3333H50.251V22.381C50.251 18.8195 48.8287 15.4039 46.2969 12.8855C43.7652 10.3672 40.3314 8.95238 36.751 8.95238Z" fill="black"/>
</svg>
