<svg width="115" height="115" viewBox="0 0 115 115" fill="none" xmlns="http://www.w3.org/2000/svg">
<path d="M113.738 113.792C112.899 114.547 111.818 114.975 110.69 115C109.561 114.985 108.476 114.556 107.643 113.792L83.0717 89.182C81.6576 90.4161 80.1588 91.5497 78.5865 92.5746C70.2668 98.1094 60.5003 101.069 50.5077 101.085C43.8524 101.103 37.2604 99.7933 31.1177 97.2322C24.9815 94.7177 19.4213 90.981 14.7753 86.2495C9.05026 80.5164 4.78775 73.4909 2.34716 65.7653C-0.0934387 58.0397 -0.640566 49.8405 0.751911 41.8591C2.14439 33.8778 5.43564 26.3482 10.3481 19.9054C15.2607 13.4625 21.6504 8.29532 28.9785 4.83944C38.7875 0.210755 49.8242 -1.14384 60.4615 0.975367C67.8073 2.42621 74.7389 5.49092 80.7554 9.94796C86.772 14.405 91.7231 20.143 95.2509 26.7473C98.7736 33.3515 100.784 40.6562 101.136 48.1328C101.488 55.6094 100.173 63.0707 97.2865 69.9767C95.3156 74.7649 92.5963 79.2096 89.2303 83.1444L113.796 107.755C114.578 108.569 115.011 109.657 115 110.785C114.989 111.914 114.536 112.994 113.738 113.792Z" fill="black"/>
</svg>
