<svg width="101" height="101" viewBox="0 0 101 101" fill="none" xmlns="http://www.w3.org/2000/svg">
<path d="M23.4909 27.0116C23.4909 19.8477 26.3365 12.9772 31.4018 7.91152C36.4671 2.84586 43.3371 0 50.5004 0C57.6638 0 64.5338 2.84586 69.5991 7.91152C74.6643 12.9772 77.51 19.8477 77.51 27.0116C77.51 34.1756 74.6643 41.0461 69.5991 46.1117C64.5338 51.1774 57.6638 54.0233 50.5004 54.0233C43.3371 54.0233 36.4671 51.1774 31.4018 46.1117C26.3365 41.0461 23.4909 34.1756 23.4909 27.0116ZM49.5516 61.1214C49.7538 61.0909 49.9578 61.0737 50.1622 61.0698H50.8386C51.0453 61.0698 51.2489 61.087 51.4493 61.1214L85.7162 67.1486L85.8947 67.1861C92.2079 68.6424 98.9908 72.6495 100.311 80.4336L100.33 80.5698L100.865 84.6897V84.6991C102.105 94.1367 94.6223 101 85.7866 101C85.5917 100.996 85.3972 100.981 85.2042 100.953H15.2143C6.37861 100.953 -1.1089 94.085 0.135885 84.6427L0.671379 80.5604L0.694865 80.4195C2.01011 72.7764 8.8494 68.5438 15.1485 67.1767L15.2847 67.1486L49.5516 61.1214Z" fill="black"/>
</svg>
